<svg width="33" height="31" viewBox="0 0 33 31" fill="none" xmlns="http://www.w3.org/2000/svg">
<g clip-path="url(#clip0_78_65)">
<path d="M32.9826 15.7901C32.9826 14.52 32.8703 13.5932 32.6273 12.6321H16.8287V18.3645H26.1021C25.9152 19.7891 24.9056 21.9344 22.662 23.3761L22.6305 23.568L27.6258 27.1203L27.9719 27.152C31.1502 24.4574 32.9826 20.4927 32.9826 15.7901Z" fill="#4285F4"/>
<path d="M16.8287 30.8935C21.3719 30.8935 25.186 29.5204 27.9719 27.152L22.662 23.376C21.2411 24.2857 19.334 24.9207 16.8287 24.9207C12.3789 24.9207 8.60222 22.2262 7.25593 18.5018L7.05859 18.5172L1.86447 22.2073L1.79654 22.3806C4.56361 27.4265 10.2474 30.8935 16.8287 30.8935Z" fill="#34A853"/>
<path d="M7.25592 18.5017C6.9007 17.5406 6.69511 16.5108 6.69511 15.4467C6.69511 14.3825 6.9007 13.3528 7.23724 12.3917L7.22783 12.187L1.96861 8.43762L1.79654 8.51276C0.656091 10.6067 0.00170135 12.9581 0.00170135 15.4467C0.00170135 17.9353 0.656091 20.2866 1.79654 22.3805L7.25592 18.5017Z" fill="#FBBC05"/>
<path d="M16.8287 5.97271C19.9884 5.97271 22.1197 7.2256 23.3351 8.27262L28.084 4.01616C25.1674 1.52752 21.3719 0 16.8287 0C10.2474 0 4.56361 3.46691 1.79654 8.51281L7.23724 12.3917C8.60222 8.66734 12.3789 5.97271 16.8287 5.97271Z" fill="#EB4335"/>
</g>
<defs>
<clipPath id="clip0_78_65">
<rect width="33" height="31" fill="white"/>
</clipPath>
</defs>
</svg>
