<svg id="visual" viewBox="0 0 960 540" width="960" height="540" xmlns="http://www.w3.org/2000/svg" xmlns:xlink="http://www.w3.org/1999/xlink" version="1.1"><rect x="0" y="0" width="960" height="540" fill="#944E63"></rect><path d="M0 325L120 378L240 380L360 397L480 350L600 319L720 404L840 393L960 363L960 541L840 541L720 541L600 541L480 541L360 541L240 541L120 541L0 541Z" fill="#ffe7e7"></path><path d="M0 401L120 402L240 381L360 375L480 393L600 421L720 373L840 377L960 431L960 541L840 541L720 541L600 541L480 541L360 541L240 541L120 541L0 541Z" fill="#e5bfc1"></path><path d="M0 397L120 432L240 399L360 430L480 404L600 420L720 403L840 421L960 430L960 541L840 541L720 541L600 541L480 541L360 541L240 541L120 541L0 541Z" fill="#cb989f"></path><path d="M0 472L120 446L240 478L360 437L480 447L600 452L720 477L840 475L960 468L960 541L840 541L720 541L600 541L480 541L360 541L240 541L120 541L0 541Z" fill="#b07380"></path><path d="M0 486L120 503L240 512L360 502L480 492L600 512L720 487L840 486L960 508L960 541L840 541L720 541L600 541L480 541L360 541L240 541L120 541L0 541Z" fill="#944e63"></path></svg>