<svg id="visual" viewBox="0 0 900 450" width="900" height="450" xmlns="http://www.w3.org/2000/svg" xmlns:xlink="http://www.w3.org/1999/xlink" version="1.1"><rect x="0" y="0" width="900" height="450" fill="#944E63"></rect><path d="M0 271L113 315L225 317L338 330L450 291L563 266L675 336L788 328L900 302L900 451L788 451L675 451L563 451L450 451L338 451L225 451L113 451L0 451Z" fill="#ffe7e7"></path><path d="M0 334L113 335L225 317L338 312L450 327L563 350L675 310L788 314L900 359L900 451L788 451L675 451L563 451L450 451L338 451L225 451L113 451L0 451Z" fill="#e5bfc1"></path><path d="M0 331L113 360L225 332L338 358L450 336L563 350L675 335L788 351L900 358L900 451L788 451L675 451L563 451L450 451L338 451L225 451L113 451L0 451Z" fill="#cb989f"></path><path d="M0 393L113 372L225 398L338 364L450 373L563 376L675 398L788 396L900 390L900 451L788 451L675 451L563 451L450 451L338 451L225 451L113 451L0 451Z" fill="#b07380"></path><path d="M0 405L113 419L225 426L338 418L450 410L563 427L675 406L788 405L900 423L900 451L788 451L675 451L563 451L450 451L338 451L225 451L113 451L0 451Z" fill="#944e63"></path></svg>