<svg width="969" height="590" viewBox="0 0 969 590" fill="none" xmlns="http://www.w3.org/2000/svg">
<g clip-path="url(#clip0_231_125)">
<path d="M969 0H0V590H969V0Z" fill="#EFE7E2"/>
<path d="M0 447.417L17.9803 456.07C35.853 464.822 71.8137 482.128 107.667 483.8C143.52 485.472 179.48 471.312 215.333 462.167C251.186 453.022 287.147 448.695 323 451.842C358.853 454.988 394.814 465.412 430.667 466.297C466.52 467.083 502.48 458.233 538.333 458.233C574.186 458.233 610.147 467.083 646 470.23C681.853 473.278 717.814 470.722 753.667 472.197C789.52 473.672 825.48 479.178 861.333 476.917C897.186 474.655 933.147 464.428 951.02 459.413L969 454.3V590.983H951.02C933.147 590.983 897.186 590.983 861.333 590.983C825.48 590.983 789.52 590.983 753.667 590.983C717.814 590.983 681.853 590.983 646 590.983C610.147 590.983 574.186 590.983 538.333 590.983C502.48 590.983 466.52 590.983 430.667 590.983C394.814 590.983 358.853 590.983 323 590.983C287.147 590.983 251.186 590.983 215.333 590.983C179.48 590.983 143.52 590.983 107.667 590.983C71.8137 590.983 35.853 590.983 17.9803 590.983H0V447.417Z" fill="#CAA6A6"/>
<path d="M0 486.75L17.9803 488.225C35.853 489.7 71.8137 492.65 107.667 496.288C143.52 499.828 179.48 504.155 215.333 505.63C251.186 507.105 287.147 505.728 323 507.105C358.853 508.383 394.814 512.317 430.667 515.758C466.52 519.2 502.48 522.15 538.333 520.478C574.186 518.905 610.147 512.612 646 504.745C681.853 496.878 717.814 487.438 753.667 486.75C789.52 486.062 825.48 494.322 861.333 500.222C897.186 506.122 933.147 509.662 951.02 511.53L969 513.3V590.983H951.02C933.147 590.983 897.186 590.983 861.333 590.983C825.48 590.983 789.52 590.983 753.667 590.983C717.814 590.983 681.853 590.983 646 590.983C610.147 590.983 574.186 590.983 538.333 590.983C502.48 590.983 466.52 590.983 430.667 590.983C394.814 590.983 358.853 590.983 323 590.983C287.147 590.983 251.186 590.983 215.333 590.983C179.48 590.983 143.52 590.983 107.667 590.983C71.8137 590.983 35.853 590.983 17.9803 590.983H0V486.75Z" fill="#C3979A"/>
<path d="M0 527.067L17.9803 529.23C35.853 531.295 71.8137 535.622 107.667 538.867C143.52 542.112 179.48 544.472 215.333 538.867C251.186 533.262 287.147 519.888 323 515.955C358.853 512.022 394.814 517.528 430.667 518.217C466.52 518.905 502.48 514.578 538.333 515.562C574.186 516.545 610.147 522.838 646 526.87C681.853 531 717.814 532.967 753.667 529.033C789.52 525.1 825.48 515.267 861.333 512.808C897.186 510.35 933.147 515.267 951.02 517.725L969 520.183V590.983H951.02C933.147 590.983 897.186 590.983 861.333 590.983C825.48 590.983 789.52 590.983 753.667 590.983C717.814 590.983 681.853 590.983 646 590.983C610.147 590.983 574.186 590.983 538.333 590.983C502.48 590.983 466.52 590.983 430.667 590.983C394.814 590.983 358.853 590.983 323 590.983C287.147 590.983 251.186 590.983 215.333 590.983C179.48 590.983 143.52 590.983 107.667 590.983C71.8137 590.983 35.853 590.983 17.9803 590.983H0V527.067Z" fill="#BB898E"/>
<path d="M0 559.517L17.9803 560.303C35.853 561.188 71.8137 562.762 107.667 562.27C143.52 561.778 179.48 559.222 215.333 554.895C251.186 550.667 287.147 544.767 323 546.438C358.853 548.012 394.814 557.255 430.667 559.32C466.52 561.483 502.48 556.567 538.333 555.583C574.186 554.6 610.147 557.55 646 558.73C681.853 559.812 717.814 559.222 753.667 558.73C789.52 558.238 825.48 557.845 861.333 559.713C897.186 561.483 933.147 565.417 951.02 567.383L969 569.35V590.983H951.02C933.147 590.983 897.186 590.983 861.333 590.983C825.48 590.983 789.52 590.983 753.667 590.983C717.814 590.983 681.853 590.983 646 590.983C610.147 590.983 574.186 590.983 538.333 590.983C502.48 590.983 466.52 590.983 430.667 590.983C394.814 590.983 358.853 590.983 323 590.983C287.147 590.983 251.186 590.983 215.333 590.983C179.48 590.983 143.52 590.983 107.667 590.983C71.8137 590.983 35.853 590.983 17.9803 590.983H0V559.517Z" fill="#B47B84"/>
</g>
<defs>
<clipPath id="clip0_231_125">
<rect width="969" height="590" rx="20" fill="white"/>
</clipPath>
</defs>
</svg>
