<svg width="377" height="377" viewBox="0 0 377 377" fill="none" xmlns="http://www.w3.org/2000/svg">
<circle cx="188.5" cy="188.5" r="188.5" fill="#590D24"/>
<path d="M175.098 233.741C166.668 224.538 184.145 163.905 81.5358 122.53C64.6608 125.592 45.6918 210.866 145.395 236.952C175.2 251.85 170.505 276.686 170.505 290.491H189.677C189.677 290.491 181.833 246.702 216.864 230.655C240.7 219.741 306.528 216.241 323.997 117.881C290.692 98.6239 172.411 136.163 175.098 233.741ZM150.918 217.147C148.887 218.554 146.098 218.046 144.692 216.014C134.934 201.881 107.95 169.272 96.0198 157.374C94.2698 155.632 94.2698 152.796 96.0198 151.053C97.7618 149.303 100.598 149.303 102.34 151.053C115.012 163.749 141.684 195.983 152.051 210.92C153.457 212.952 152.95 215.741 150.918 217.147ZM275.981 144.577C243.356 165.194 216.692 199.499 204.668 218.131C203.332 220.202 200.559 220.795 198.489 219.459C196.418 218.115 195.825 215.35 197.168 213.272C209.739 193.889 236.739 158.889 271.192 137.022C273.278 135.694 276.036 136.319 277.364 138.405C278.684 140.491 278.067 143.249 275.981 144.577Z" fill="#FFE7E7"/>
</svg>
